<svg width="10" height="10" viewBox="0 0 10 10" fill="none" xmlns="http://www.w3.org/2000/svg">
<path opacity="0.3" fill-rule="evenodd" clip-rule="evenodd" d="M3.40627 2.3125L2.21875 4.6875H0C0.15625 2.0625 2.3125 0 4.96873 0C7.625 0 9.78127 2.0625 9.96873 4.6875H7.53127C7.40627 4.6875 7.3125 4.78127 7.25 4.875L6.25 6.875L3.96873 2.3125C3.875 2.09375 3.5 2.09375 3.40627 2.3125ZM6.53127 7.6875L7.71873 5.3125H9.9375C9.78127 7.9375 7.625 10 4.96873 10C2.3125 10 0.15625 7.9375 0 5.3125H2.40625C2.53125 5.3125 2.625 5.25 2.6875 5.125L3.6875 3.125L5.96873 7.6875C6.03127 7.8125 6.125 7.875 6.25 7.875C6.375 7.875 6.46873 7.78127 6.53127 7.6875Z" fill="#4F6472"/>
</svg>
