<svg width="10" height="9" viewBox="0 0 10 9" fill="none" xmlns="http://www.w3.org/2000/svg">
<path opacity="0.3" fill-rule="evenodd" clip-rule="evenodd" d="M5 1.92857C5 2.96904 4.18094 4.17857 3.125 4.17857C2.06906 4.17857 1.25 2.96904 1.25 1.92857C1.25 0.864964 2.09094 0 3.125 0C4.15906 0 5 0.864964 5 1.92857ZM6.25 1.28571H9.6875C9.86 1.28571 10 1.42939 10 1.60714C10 1.78489 9.86 1.92857 9.6875 1.92857H6.25C6.0775 1.92857 5.9375 1.78489 5.9375 1.60714C5.9375 1.42939 6.0775 1.28571 6.25 1.28571ZM6.25 3.21429H9.6875C9.86 3.21429 10 3.35796 10 3.53571C10 3.71346 9.86 3.85714 9.6875 3.85714H6.25C6.0775 3.85714 5.9375 3.71346 5.9375 3.53571C5.9375 3.35796 6.0775 3.21429 6.25 3.21429ZM9.6875 5.14286H7.8125C7.64 5.14286 7.5 5.28654 7.5 5.46429C7.5 5.64204 7.64 5.78571 7.8125 5.78571H9.6875C9.86 5.78571 10 5.64204 10 5.46429C10 5.28654 9.86 5.14286 9.6875 5.14286ZM7.8125 7.07143H9.6875C9.86 7.07143 10 7.21511 10 7.39286C10 7.57061 9.86 7.71429 9.6875 7.71429H7.8125C7.64 7.71429 7.5 7.57061 7.5 7.39286C7.5 7.21511 7.64 7.07143 7.8125 7.07143ZM5.12781 5.13418C3.75281 4.71568 2.45563 4.72371 1.11969 5.13032C0.449687 5.33443 0 5.95382 0 6.67221V8.67857C0 8.85632 0.14 9 0.3125 9H5.9375C6.11 9 6.25 8.85632 6.25 8.67857V6.67671C6.25 5.958 5.79906 5.33796 5.12781 5.13418Z" fill="#4F6472"/>
</svg>
