<svg width="10" height="8" viewBox="0 0 10 8" fill="none" xmlns="http://www.w3.org/2000/svg">
<path fill-rule="evenodd" clip-rule="evenodd" d="M9.64286 5H7.14286V2.5C7.14286 2.3125 7 2.1875 6.78571 2.1875H6.07143V1.5625C6.07143 1.375 5.92857 1.25 5.71429 1.25H5.35714V0.3125C5.35714 0.125 5.21429 0 5 0C4.78571 0 4.64286 0.125 4.64286 0.3125V1.25H4.28571C4.07143 1.25 3.92857 1.375 3.92857 1.5625V2.1875H3.21429C3 2.1875 2.85714 2.3125 2.85714 2.5V5.9375H0.357143C0.142857 5.9375 0 6.0625 0 6.25V9.6875C0 9.875 0.142857 10 0.357143 10H3.21429H4.28571H5.71429H6.78571H9.64286C9.85714 10 10 9.875 10 9.6875V5.3125C10 5.125 9.85714 5 9.64286 5ZM2.14286 8.75H1.07143V8.125H2.14286V8.75ZM2.14286 7.8125H1.07143V7.1875H2.14286V7.8125ZM3.57143 8.75H2.5V8.125H3.57143V8.75ZM3.57143 7.8125H2.5V7.1875H3.57143V7.8125ZM5.35714 5.3125V9.375H4.64286V6.25C4.64286 6.0625 4.5 5.9375 4.28571 5.9375H3.57143V2.8125H4.28571C4.5 2.8125 4.64286 2.6875 4.64286 2.5V1.875H5.35714V2.5C5.35714 2.6875 5.5 2.8125 5.71429 2.8125H6.42857V5H5.71429C5.5 5 5.35714 5.125 5.35714 5.3125ZM7.5 8.75H6.42857V8.125H7.5V8.75ZM7.5 7.8125H6.42857V7.1875H7.5V7.8125ZM7.5 6.875H6.42857V6.25H7.5V6.875ZM8.92857 8.75H7.85714V8.125H8.92857V8.75ZM8.92857 7.8125H7.85714V7.1875H8.92857V7.8125ZM8.92857 6.875H7.85714V6.25H8.92857V6.875Z" fill="white"/>
</svg>
