<svg width="10" height="10" viewBox="0 0 10 10" fill="none" xmlns="http://www.w3.org/2000/svg">
<path opacity="0.3" fill-rule="evenodd" clip-rule="evenodd" d="M0.312501 0H7.81252C7.98531 0 8.125 0.149001 8.125 0.333337V6.00006C8.125 6.18441 7.98531 6.33341 7.81252 6.33341H4.49251L2.08063 8.58443C1.9875 8.67109 1.85563 8.69043 1.74594 8.63674C1.63406 8.58274 1.5625 8.46443 1.5625 8.33343V6.33341H0.312501C0.139688 6.33341 0 6.18441 0 6.00006V0.333337C0 0.149001 0.139688 0 0.312501 0ZM8.75002 2.66669H9.68752C9.86002 2.66669 10 2.81603 10 3.00003V8.00008C10 8.18408 9.86002 8.33343 9.68752 8.33343H8.75002V9.66675C8.75002 9.79175 8.68469 9.9061 8.58062 9.9631C8.4744 10.0208 8.35 10.0098 8.25596 9.93775L6.15001 8.33343H3.29875L4.72749 7.00007H8.125C8.47032 7.00007 8.75002 6.70172 8.75002 6.33341V2.66669Z" fill="#4F6472"/>
</svg>
