<svg width="38" height="31" viewBox="0 0 38 31" fill="none" xmlns="http://www.w3.org/2000/svg">
<path d="M37.9941 15.3388C37.9941 9.67911 33.4062 5.09127 27.7465 5.09127C26.8439 5.09126 25.9454 5.21038 25.074 5.44554C21.319 6.24312 18.3316 9.08888 16.0101 12.2299C14.5106 14.2588 13.0034 16.119 10.3857 16.6142C7.96706 17.072 4.66529 15.6783 4.43731 12.9444C4.35036 11.8996 4.65617 10.6244 5.24374 9.74839C6.19651 8.32706 7.96516 9.64755 9.22234 9.78857C10.1274 9.88983 11.1189 9.93366 11.9972 9.64727C13.7534 9.07514 14.1154 7.67056 13.1141 6.23751C12.1286 4.82676 10.4684 3.98956 8.74732 3.99538C7.7623 3.99881 6.29489 4.36549 5.57367 5.09751C6.14784 3.8998 5.33441 2.29691 4.86787 1.63067C3.9393 0.304211 1.52866 -0.848131 0.358923 0.852297C-0.456685 2.03781 0.277229 4.36367 0.979588 5.44217C1.36723 6.03745 1.92478 6.59767 2.08214 7.31251C2.25394 8.09249 1.87359 8.78994 1.60369 9.50086C1.32319 10.2395 1.04151 10.9993 0.914864 11.7787C3.05772e-05 17.4062 1.55467 22.1759 5.53861 25.6046C6.58583 26.5058 7.78207 27.3086 9.01267 27.9392C10.5137 28.7079 12.2384 29.3221 13.891 29.6653C15.5459 30.0089 17.3352 30.2514 19.0284 30.2514C26.9007 30.2514 33.6408 26.3302 36.4359 20.7689C37.422 19.1942 37.9941 17.3338 37.9941 15.3388Z" fill="white"/>
</svg>
